<svg xmlns="http://www.w3.org/2000/svg" version="1.1" xmlns:xlink="http://www.w3.org/1999/xlink" xmlns:svgjs="http://svgjs.com/svgjs" id="Pattern1618SvgRootPreview" width="100%" height="100%"><defs><pattern x="0" y="0" width="1" height="1" patternUnits="userSpaceOnUse" id="Pattern1618Layer1" patternTransform="matrix(2.2966101694915255,0,0,2.2966101694915255,0,0)"><g id="PatternRootContent1"><g id="Pattern1618Layer1background"><rect width="1" height="1" id="Pattern1618Background1" class="color_1 fill_color_1" fill="#c3d4c5"></rect></g></g></pattern><pattern x="0" y="0" width="118" height="204" patternUnits="userSpaceOnUse" id="Pattern1618Layer2" patternTransform="matrix(1.1483050847457628,0,0,1.1483050847457628,0,0)"><g id="PatternRootContent2"><g id="Pattern1618Layer2Element3"><use xlink:href="#Pattern1618Element3" x="49.97630310058594" y="-109.9102554321289" transform="translate(118, -51) scale(1) translate(-118, 51) rotate(0, 118, -51)"></use><use xlink:href="#Pattern1618Element3" x="-68.02369689941406" y="-109.9102554321289" transform="translate(0, -51) scale(1) translate(0, 51) rotate(0, 0, -51)"></use><use xlink:href="#Pattern1618Element3" x="-9.023696899414062" y="-7.910255432128906" transform="translate(59, 51) scale(1) translate(-59, -51) rotate(0, 59, 51)"></use><use xlink:href="#Pattern1618Element3" x="-127.02369689941406" y="-7.910255432128906" transform="translate(-59, 51) scale(1) translate(59, -51) rotate(0, -59, 51)"></use><use xlink:href="#Pattern1618Element3" x="108.97630310058594" y="-7.910255432128906" transform="translate(177, 51) scale(1) translate(-177, -51) rotate(0, 177, 51)"></use><use xlink:href="#Pattern1618Element3" x="49.97630310058594" y="94.0897445678711" transform="translate(118, 153) scale(1) translate(-118, -153) rotate(0, 118, 153)"></use><use xlink:href="#Pattern1618Element3" x="-68.02369689941406" y="94.0897445678711" transform="translate(0, 153) scale(1) translate(0, -153) rotate(0, 0, 153)"></use><use xlink:href="#Pattern1618Element3" x="-9.023696899414062" y="196.0897445678711" transform="translate(59, 255) scale(1) translate(-59, -255) rotate(0, 59, 255)"></use><use xlink:href="#Pattern1618Element3" x="-9.023696899414062" y="196.0897445678711" transform="translate(59, 255) scale(1) translate(-59, -255) rotate(0, 59, 255)"></use></g></g></pattern><symbol id="Pattern1618Element3"><g class="color_4 fill_color_4" fill="#244b5b"><g><path d="M88.004,17.234375c0,-1.44,-0.75,-2.69,-1.88,-3.4L68.024,3.234375238418579L49.924,13.834375381469727C48.794,14.544,48.024,15.794,48.024,17.234375l0,20c0,2.21,1.79,4,4,4l32,0c2.21,0,4,-1.79,4,-4l-0.02,-20ZM68.024,27.234375L51.504,16.904375076293945L68.024,7.234375l16.52,9.67L68.024,27.234375Z"></path><path d="M48.044,55.234375c0,1.44,0.75,2.69,1.88,3.4L68.024,69.234375L86.124,58.634376525878906C87.254,57.924,88.024,56.674,88.024,55.234375l0,-20c0,-2.21,-1.79,-4,-4,-4l-32,0c-2.21,0,-4,1.79,-4,4l0.02,20ZM68.024,45.234375L84.544,55.56437683105469L68.024,65.234375l-16.52,-9.67L68.024,45.234375Z"></path></g><g><path d="M103.933,114.03755950927734c1.247,0.72,2.705,0.695,3.885,0.072L126.047,103.734375L125.918,82.75931549072266C125.868,81.426,125.17,80.134,123.923,79.41386413574219l-17.32,-10c-1.914,-1.105,-4.359,-0.45,-5.464,1.464l-16,27.713c-1.105,1.914,-0.45,4.359,1.464,5.464l17.331,9.983ZM105.263,91.734375L122.469,82.59263610839844L122.583,101.734375l-16.634,9.472L105.263,91.734375Z"></path><path d="M91.004,60.43118667602539c-1.247,-0.72,-2.705,-0.695,-3.884,-0.072L68.89,70.734375L69.02,91.70943450927734C69.069,93.043,69.767,94.335,71.014,95.05488586425781l17.321,10c1.914,1.105,4.359,0.45,5.464,-1.464l16,-27.713c1.105,-1.914,0.45,-4.359,-1.464,-5.464l-17.331,-9.983ZM89.674,82.734375L72.468,91.87611389160156L72.354,72.734375l16.634,-9.472L89.674,82.734375Z"></path></g><g><path d="M12.134,79.43119049072266c-1.247,0.72,-1.954,1.995,-2.004,3.328L10,103.734375L28.23,114.10943603515625C29.41,114.733,30.877,114.775,32.124,114.05488586425781l17.321,-10c1.914,-1.105,2.569,-3.55,1.464,-5.464l-16,-27.713c-1.105,-1.914,-3.55,-2.569,-5.464,-1.464l-17.311,10.017ZM30.785,91.734375L30.099,111.20611572265625L13.464,101.734375l0.115,-19.142L30.785,91.734375Z"></path><path d="M65.023,95.03756713867188c1.247,-0.72,1.955,-1.995,2.005,-3.328L67.158,70.73438262939453L48.928,60.359317779541016C47.748,59.736,46.28,59.694,45.033,60.41386795043945l-17.32,10c-1.914,1.105,-2.569,3.55,-1.464,5.464l16,27.713c1.105,1.914,3.55,2.569,5.464,1.464l17.311,-10.017ZM46.373,82.734375L47.059,63.262638092041016L63.694,72.73438262939453l-0.115,19.142L46.373,82.734375Z"></path></g></g></symbol></defs><rect width="100%" height="100%" id="Pattern1618RctLayer1" fill="url(#Pattern1618Layer1)"></rect><rect width="100%" height="100%" id="Pattern1618RctLayer2" fill="url(#Pattern1618Layer2)"></rect></svg>